<svg version="1.1" xmlns="http://www.w3.org/2000/svg" xmlns:xlink="http://www.w3.org/1999/xlink" width="100px" height="100px" viewBox="0,0,256,256"><g fill="none" fill-rule="nonzero" stroke="none" stroke-width="1" stroke-linecap="butt" stroke-linejoin="miter" stroke-miterlimit="10" stroke-dasharray="" stroke-dashoffset="0" font-family="none" font-weight="none" font-size="none" text-anchor="none" style="mix-blend-mode: normal"><g transform="scale(2.56,2.56)"><path d="M87.215,56.71c1.135,-2.155 1.785,-4.605 1.785,-7.21c0,-6.621 -4.159,-12.257 -10.001,-14.478c0,-0.007 0.001,-0.014 0.001,-0.022c0,-11.598 -9.402,-21 -21,-21c-9.784,0 -17.981,6.701 -20.313,15.757c-1.476,-0.485 -3.049,-0.757 -4.687,-0.757c-7.692,0 -14.023,5.793 -14.89,13.252c-5.204,1.101 -9.11,5.717 -9.11,11.248c0,6.351 5.149,11.5 11.5,11.5c0.177,0 0.352,-0.012 0.526,-0.022c-0.004,0.175 -0.026,0.346 -0.026,0.522c0,11.322 9.178,20.5 20.5,20.5c6.437,0 12.175,-2.972 15.934,-7.614c2.178,2.225 5.206,3.614 8.566,3.614c4.65,0 8.674,-2.65 10.666,-6.518c1.052,0.335 2.171,0.518 3.334,0.518c6.075,0 11,-4.925 11,-11c0,-3.311 -1.47,-6.273 -3.785,-8.29z" fill="#c4efe7"></path><path d="M70.125,75.5c0,0 -3.64,0 -6.125,0c-2.485,0 -4.5,-2.015 -4.5,-4.5c0,-2.333 1.782,-4.229 4.055,-4.455c-0.022,-0.181 -0.055,-0.358 -0.055,-0.545c0,-2.485 2.015,-4.5 4.5,-4.5c1.438,0 2.703,0.686 3.527,1.736c0.14,-2.636 2.302,-4.736 4.973,-4.736c2.761,0 5,2.239 5,5c0,0.446 -0.077,0.87 -0.187,1.282c0.642,-0.777 1.6,-1.282 2.687,-1.282c1.781,0 3.234,1.335 3.455,3.055c0.181,-0.022 0.358,-0.055 0.545,-0.055c2.485,0 4.5,2.015 4.5,4.5c0,2.485 -2.015,4.5 -4.5,4.5c-2.485,0 -9.5,0 -9.5,0h-5.375v0.5h-3z" fill="#fdfcef"></path><path d="M76.5,58c3.033,0 5.5,2.467 5.5,5.5c0,0.016 0,0.031 0,0.047c0.602,-0.355 1.29,-0.547 2,-0.547c1.831,0 3.411,1.261 3.858,3.005c0.047,-0.003 0.094,-0.005 0.142,-0.005c2.757,0 5,2.243 5,5c0,2.757 -2.243,5 -5,5h-14.875c-0.276,0 -0.5,-0.224 -0.5,-0.5c0,-0.276 0.224,-0.5 0.5,-0.5h14.875c2.206,0 4,-1.794 4,-4c0,-2.206 -1.794,-4 -4,-4c-0.117,0 -0.23,0.017 -0.343,0.032l-0.141,0.019c-0.021,0.003 -0.041,0.004 -0.062,0.004c-0.246,0 -0.462,-0.185 -0.495,-0.437c-0.191,-1.493 -1.463,-2.618 -2.959,-2.618c-0.885,0 -1.723,0.401 -2.301,1.1c-0.098,0.118 -0.241,0.182 -0.386,0.182c-0.078,0 -0.156,-0.018 -0.228,-0.056c-0.209,-0.107 -0.314,-0.346 -0.254,-0.573c0.115,-0.435 0.169,-0.801 0.169,-1.153c0,-2.481 -2.019,-4.5 -4.5,-4.5c-2.381,0 -4.347,1.872 -4.474,4.263c-0.011,0.208 -0.15,0.387 -0.349,0.45c-0.05,0.016 -0.101,0.024 -0.152,0.024c-0.15,0 -0.296,-0.069 -0.392,-0.192c-0.771,-0.982 -1.912,-1.545 -3.133,-1.545c-2.206,0 -4,1.794 -4,4c0,0.117 0.017,0.23 0.032,0.343l0.019,0.141c0.016,0.134 -0.022,0.268 -0.106,0.373c-0.084,0.105 -0.207,0.172 -0.34,0.185c-2.056,0.205 -3.605,1.907 -3.605,3.958c0,2.206 1.794,4 4,4h6.125c0.276,0 0.5,0.224 0.5,0.5c0,0.276 -0.224,0.5 -0.5,0.5h-6.125c-2.757,0 -5,-2.243 -5,-5c0,-2.397 1.689,-4.413 4.003,-4.877c-0.002,-0.041 -0.003,-0.082 -0.003,-0.123c0,-2.757 2.243,-5 5,-5c1.176,0 2.293,0.416 3.183,1.164c0.598,-2.404 2.762,-4.164 5.317,-4.164z" fill="#472b29"></path><path d="M78,65c1.403,0 2.609,0.999 2.913,2.341c0.367,-0.222 0.786,-0.341 1.212,-0.341c1.202,0 2.198,0.897 2.353,2.068c0.203,-0.046 0.396,-0.068 0.585,-0.068c1.529,0 2.811,1.2 2.918,2.732c0.009,0.138 -0.095,0.258 -0.232,0.268c-0.006,0 -0.012,0 -0.018,0c-0.13,0 -0.24,-0.101 -0.249,-0.232c-0.089,-1.271 -1.151,-2.268 -2.419,-2.268c-0.229,0 -0.47,0.042 -0.738,0.127c-0.022,0.007 -0.045,0.01 -0.067,0.01c-0.055,0 -0.11,-0.02 -0.156,-0.054c-0.064,-0.046 -0.102,-0.128 -0.102,-0.208c0,-1.034 -0.841,-1.875 -1.875,-1.875c-0.447,0 -0.885,0.168 -1.231,0.473c-0.047,0.041 -0.106,0.063 -0.165,0.063c-0.032,0 -0.063,-0.006 -0.093,-0.019c-0.088,-0.035 -0.148,-0.117 -0.155,-0.212c-0.104,-1.293 -1.193,-2.305 -2.481,-2.305c-0.208,0 -0.425,0.034 -0.682,0.107c-0.023,0.007 -0.047,0.01 -0.07,0.01c-0.109,0 -0.207,-0.073 -0.239,-0.182c-0.038,-0.133 0.039,-0.271 0.172,-0.309c0.302,-0.086 0.563,-0.126 0.819,-0.126zM64.117,66.5c1.326,0 2.508,0.897 2.874,2.182c0.038,0.133 -0.039,0.271 -0.172,0.309c-0.024,0.006 -0.047,0.009 -0.069,0.009c-0.109,0 -0.209,-0.072 -0.24,-0.182c-0.305,-1.07 -1.289,-1.818 -2.393,-1.818c-0.117,0 -0.23,0.014 -0.342,0.029c-0.012,0.002 -0.023,0.003 -0.035,0.003c-0.121,0 -0.229,-0.092 -0.246,-0.217c-0.019,-0.137 0.077,-0.263 0.214,-0.281c0.134,-0.018 0.27,-0.034 0.409,-0.034z" fill="#472b29"></path><path d="M46.405,24h-9.905c-0.276,0 -0.5,-0.224 -0.5,-0.5c0,-0.276 0.224,-0.5 0.5,-0.5h9.905c0.276,0 0.5,0.224 0.5,0.5c0,0.276 -0.223,0.5 -0.5,0.5zM49.5,24h-1c-0.276,0 -0.5,-0.224 -0.5,-0.5c0,-0.276 0.224,-0.5 0.5,-0.5h1c0.276,0 0.5,0.224 0.5,0.5c0,0.276 -0.223,0.5 -0.5,0.5zM54.491,26h-8.991c-0.276,0 -0.5,-0.224 -0.5,-0.5c0,-0.276 0.224,-0.5 0.5,-0.5h8.991c0.276,0 0.5,0.224 0.5,0.5c0,0.276 -0.224,0.5 -0.5,0.5zM43.5,26h-1c-0.276,0 -0.5,-0.224 -0.5,-0.5c0,-0.276 0.224,-0.5 0.5,-0.5h1c0.276,0 0.5,0.224 0.5,0.5c0,0.276 -0.223,0.5 -0.5,0.5zM40.5,26h-2c-0.276,0 -0.5,-0.224 -0.5,-0.5c0,-0.276 0.224,-0.5 0.5,-0.5h2c0.276,0 0.5,0.224 0.5,0.5c0,0.276 -0.223,0.5 -0.5,0.5zM46.5,28h-2c-0.276,0 -0.5,-0.224 -0.5,-0.5c0,-0.276 0.224,-0.5 0.5,-0.5h2c0.276,0 0.5,0.224 0.5,0.5c0,0.276 -0.224,0.5 -0.5,0.5zM49.5,19c-0.177,0 -0.823,0 -1,0c-0.276,0 -0.5,0.224 -0.5,0.5c0,0.276 0.224,0.5 0.5,0.5c0.177,0 0.823,0 1,0c0.276,0 0.5,-0.224 0.5,-0.5c0,-0.276 -0.224,-0.5 -0.5,-0.5zM49.5,21c-0.177,0 -4.823,0 -5,0c-0.276,0 -0.5,0.224 -0.5,0.5c0,0.276 0.224,0.5 0.5,0.5c0.177,0 4.823,0 5,0c0.276,0 0.5,-0.224 0.5,-0.5c0,-0.276 -0.224,-0.5 -0.5,-0.5zM54.5,23c-0.177,0 -2.823,0 -3,0c-0.276,0 -0.5,0.224 -0.5,0.5c0,0.276 0.224,0.5 0.5,0.5c0.177,0 2.823,0 3,0c0.276,0 0.5,-0.224 0.5,-0.5c0,-0.276 -0.224,-0.5 -0.5,-0.5z" fill="#ffffff"></path><path d="M24,52.319c-0.005,6.134 3.789,11.936 10.312,15.77v0c0,3.318 -0.97,6.992 -2.182,9.327c-0.431,0.83 0.247,1.783 1.177,1.681c6.02,-0.66 11.724,-3.626 14.755,-6.593h3.438c15.188,0 27.5,-9.037 27.5,-20.185c0,-11.148 -12.312,-20.186 -27.5,-20.186c-15.188,0 -27.5,9.038 -27.5,20.186" fill="#fefdef"></path><path d="M33.174,79.804c-0.618,0 -1.199,-0.301 -1.552,-0.814c-0.391,-0.571 -0.433,-1.28 -0.112,-1.896c1.202,-2.318 2.027,-5.729 2.098,-8.609c-6.562,-3.982 -10.313,-9.854 -10.308,-16.166c0,-11.516 12.65,-20.885 28.2,-20.885c15.55,0 28.2,9.369 28.2,20.886c0,11.517 -12.65,20.884 -28.2,20.884h-3.156c-2.997,2.821 -8.705,5.903 -14.96,6.589c-0.071,0.007 -0.141,0.011 -0.21,0.011zM51.5,32.833c-14.777,0 -26.8,8.741 -26.8,19.485c0,0 0,0 0,0.001c-0.005,5.912 3.628,11.44 9.967,15.166c0.214,0.126 0.346,0.355 0.346,0.604c0,3.213 -0.888,7.001 -2.261,9.649c-0.108,0.209 -0.03,0.378 0.025,0.46c0.049,0.07 0.181,0.229 0.453,0.203c6.072,-0.665 11.578,-3.692 14.343,-6.397c0.131,-0.128 0.307,-0.2 0.489,-0.2h3.438c14.777,0 26.8,-8.741 26.8,-19.485c0,-10.744 -12.023,-19.486 -26.8,-19.486z" fill="#472b29"></path><g fill="#472b29"><path d="M34.713,64.912c-0.05,0 -0.099,-0.015 -0.143,-0.045c-4.722,-3.271 -7.322,-7.657 -7.322,-12.351c0,-7.171 6.342,-13.666 15.78,-16.162c0.133,-0.037 0.27,0.045 0.305,0.178c0.036,0.133 -0.044,0.27 -0.178,0.305c-9.216,2.438 -15.407,8.739 -15.407,15.68c0,4.524 2.524,8.766 7.107,11.94c0.113,0.078 0.142,0.234 0.063,0.348c-0.048,0.07 -0.126,0.107 -0.205,0.107z"></path></g><g fill="#472b29"><path d="M51.483,69.756c-0.138,0 -0.25,-0.112 -0.25,-0.25c0,-0.138 0.112,-0.25 0.25,-0.25c6.855,0 13.377,-2.094 17.892,-5.744c0.105,-0.085 0.263,-0.072 0.352,0.037c0.087,0.107 0.07,0.265 -0.037,0.352c-4.603,3.721 -11.239,5.855 -18.207,5.855z"></path></g><g fill="#472b29"><path d="M72.101,61.453c-0.057,0 -0.114,-0.02 -0.161,-0.059c-0.105,-0.089 -0.119,-0.247 -0.03,-0.353c2.165,-2.573 3.31,-5.521 3.31,-8.525c0,-3.84 -1.797,-7.454 -5.197,-10.45c-0.104,-0.091 -0.114,-0.249 -0.022,-0.353c0.092,-0.104 0.25,-0.114 0.353,-0.022c3.461,3.05 5.367,6.895 5.367,10.825c0,3.123 -1.185,6.183 -3.427,8.848c-0.052,0.059 -0.122,0.089 -0.193,0.089z"></path></g><g fill="#472b29"><path d="M66.74,39.656c-0.043,0 -0.086,-0.011 -0.126,-0.034c-0.916,-0.534 -1.89,-1.022 -2.896,-1.449c-0.127,-0.055 -0.187,-0.201 -0.133,-0.328c0.055,-0.13 0.201,-0.186 0.328,-0.133c1.025,0.436 2.019,0.934 2.952,1.479c0.119,0.069 0.159,0.223 0.09,0.342c-0.046,0.079 -0.129,0.123 -0.215,0.123z"></path></g><g fill="#472b29"><path d="M62.081,37.521c-0.027,0 -0.055,-0.005 -0.082,-0.014c-3.288,-1.148 -6.826,-1.73 -10.516,-1.73c-1.037,0 -2.08,0.048 -3.101,0.143c-0.137,0.015 -0.26,-0.089 -0.272,-0.226c-0.013,-0.138 0.089,-0.26 0.226,-0.272c1.036,-0.096 2.095,-0.145 3.147,-0.145c3.746,0 7.34,0.592 10.68,1.758c0.131,0.046 0.199,0.188 0.154,0.318c-0.036,0.103 -0.132,0.168 -0.236,0.168z"></path></g><g><path d="M34.5,47.5c0,0 1.567,0 3.5,0c1.933,0 3.5,-1.567 3.5,-3.5c0,-1.781 -1.335,-3.234 -3.055,-3.455c0.028,-0.179 0.055,-0.358 0.055,-0.545c0,-1.933 -1.567,-3.5 -3.5,-3.5c-1.032,0 -1.95,0.455 -2.59,1.165c-0.384,-1.808 -1.987,-3.165 -3.91,-3.165c-2.209,0 -4,1.791 -4,4c0,0.191 0.03,0.374 0.056,0.558c-0.428,-0.344 -0.964,-0.558 -1.556,-0.558c-1.228,0 -2.245,0.887 -2.455,2.055c-0.179,-0.028 -0.358,-0.055 -0.545,-0.055c-1.933,0 -3.5,1.567 -3.5,3.5c0,1.933 1.567,3.5 3.5,3.5c1.933,0 7.5,0 7.5,0v0.5h7z" fill="#fdfcef"></path><path d="M36.25,43c-0.138,0 -0.25,-0.112 -0.25,-0.25c0,-1.223 0.995,-2.218 2.218,-2.218c0.034,0.009 0.737,-0.001 1.244,0.136c0.133,0.036 0.212,0.173 0.176,0.306c-0.036,0.134 -0.173,0.213 -0.306,0.176c-0.444,-0.12 -1.1,-0.12 -1.113,-0.118c-0.948,0 -1.719,0.771 -1.719,1.718c0,0.138 -0.112,0.25 -0.25,0.25zM29.5,47c-0.27614,0 -0.5,0.22386 -0.5,0.5c0,0.27614 0.22386,0.5 0.5,0.5c0.27614,0 0.5,-0.22386 0.5,-0.5c0,-0.27614 -0.22386,-0.5 -0.5,-0.5z" fill="#472b29"></path><path d="M38,48h-3.5c-0.276,0 -0.5,-0.224 -0.5,-0.5c0,-0.276 0.224,-0.5 0.5,-0.5h3.5c1.654,0 3,-1.346 3,-3c0,-1.496 -1.125,-2.768 -2.618,-2.959c-0.134,-0.018 -0.255,-0.088 -0.336,-0.196c-0.081,-0.108 -0.115,-0.244 -0.094,-0.377c0.023,-0.154 0.048,-0.308 0.048,-0.468c0,-1.654 -1.346,-3 -3,-3c-0.85,0 -1.638,0.355 -2.219,1c-0.125,0.139 -0.321,0.198 -0.5,0.148c-0.182,-0.049 -0.321,-0.195 -0.36,-0.379c-0.341,-1.604 -1.78,-2.769 -3.421,-2.769c-1.93,0 -3.5,1.57 -3.5,3.5c0,0.143 0.021,0.28 0.041,0.418c0.029,0.203 -0.063,0.438 -0.242,0.54c-0.179,0.102 -0.396,0.118 -0.556,-0.01c-0.365,-0.293 -0.794,-0.448 -1.243,-0.448c-0.966,0 -1.792,0.691 -1.963,1.644c-0.048,0.267 -0.296,0.446 -0.569,0.405c-0.154,-0.024 -0.308,-0.049 -0.468,-0.049c-1.654,0 -3,1.346 -3,3c0,1.654 1.346,3 3,3h7.5c0.276,0 0.5,0.224 0.5,0.5c0,0.276 -0.224,0.5 -0.5,0.5h-7.5c-2.206,0 -4,-1.794 -4,-4c0,-2.206 1.794,-4 4,-4c0.059,0 0.116,0.002 0.174,0.006c0.414,-1.186 1.537,-2.006 2.826,-2.006c0.349,0 0.689,0.061 1.011,0.18c0.165,-2.333 2.115,-4.18 4.489,-4.18c1.831,0 3.466,1.127 4.153,2.774c0.68,-0.498 1.502,-0.774 2.347,-0.774c2.206,0 4,1.794 4,4c0,0.048 -0.001,0.095 -0.004,0.142c1.743,0.448 3.004,2.027 3.004,3.858c0,2.206 -1.794,4 -4,4z" fill="#472b29"></path><path d="M32.5,47c-0.159,0 -0.841,0 -1,0c-0.276,0 -0.5,0.224 -0.5,0.5c0,0.276 0.224,0.5 0.5,0.5c0.159,0 0.841,0 1,0c0.276,0 0.5,-0.224 0.5,-0.5c0,-0.276 -0.224,-0.5 -0.5,-0.5z" fill="#472b29"></path></g><g fill="#472b29"><path d="M36.208,75.708c-0.067,0 -0.134,-0.027 -0.183,-0.079c-0.067,-0.072 -0.086,-0.178 -0.048,-0.269c1.217,-2.868 1.273,-5.047 1.359,-8.346l0.251,-0.014l0.25,0.007c-0.083,3.173 -0.139,5.322 -1.185,8.022c3.29,-1.254 5.767,-3.145 7.977,-6.073c0.058,-0.076 0.154,-0.113 0.247,-0.095c1.045,0.203 1.356,0.243 2.481,0.354c0.138,0.014 0.238,0.137 0.225,0.273c-0.013,0.136 -0.137,0.234 -0.273,0.225c-1.088,-0.108 -1.429,-0.15 -2.375,-0.332c-2.365,3.094 -5.037,5.043 -8.643,6.312c-0.027,0.01 -0.056,0.015 -0.083,0.015z"></path></g><g><path d="M43.5,50.5c-1.10457,0 -2,0.89543 -2,2c0,1.10457 0.89543,2 2,2c1.10457,0 2,-0.89543 2,-2c0,-1.10457 -0.89543,-2 -2,-2z" fill="#bb7a54"></path><path d="M43.5,54.75c-1.24,0 -2.25,-1.01 -2.25,-2.25c0,-1.24 1.01,-2.25 2.25,-2.25c1.24,0 2.25,1.01 2.25,2.25c0,1.24 -1.01,2.25 -2.25,2.25zM43.5,50.75c-0.965,0 -1.75,0.785 -1.75,1.75c0,0.965 0.785,1.75 1.75,1.75c0.965,0 1.75,-0.785 1.75,-1.75c0,-0.965 -0.785,-1.75 -1.75,-1.75z" fill="#472b29"></path></g><g fill="#bb7a54"><path d="M51.5,50.5c-1.10457,0 -2,0.89543 -2,2c0,1.10457 0.89543,2 2,2c1.10457,0 2,-0.89543 2,-2c0,-1.10457 -0.89543,-2 -2,-2z"></path></g><g fill="#472b29"><path d="M51.5,54.75c-1.24,0 -2.25,-1.01 -2.25,-2.25c0,-1.24 1.01,-2.25 2.25,-2.25c0.281,0 0.558,0.052 0.819,0.153c0.129,0.051 0.192,0.195 0.143,0.324c-0.051,0.128 -0.195,0.189 -0.324,0.143c-0.204,-0.08 -0.418,-0.12 -0.638,-0.12c-0.965,0 -1.75,0.785 -1.75,1.75c0,0.965 0.785,1.75 1.75,1.75c0.965,0 1.75,-0.785 1.75,-1.75c0,-0.245 -0.05,-0.481 -0.146,-0.701c-0.056,-0.127 0.001,-0.274 0.127,-0.33c0.127,-0.056 0.274,0.001 0.33,0.127c0.126,0.284 0.189,0.589 0.189,0.904c0,1.24 -1.01,2.25 -2.25,2.25z"></path></g><g fill="#bb7a54"><path d="M59.5,50.5c-1.10457,0 -2,0.89543 -2,2c0,1.10457 0.89543,2 2,2c1.10457,0 2,-0.89543 2,-2c0,-1.10457 -0.89543,-2 -2,-2z"></path></g><g fill="#472b29"><path d="M58.772,54.613c-0.03,0 -0.062,-0.006 -0.091,-0.018c-0.291,-0.113 -0.551,-0.283 -0.772,-0.505c-0.877,-0.877 -0.877,-2.305 0,-3.182c0.877,-0.877 2.305,-0.877 3.182,0c0.877,0.877 0.877,2.305 0,3.182c-0.2,0.2 -0.432,0.358 -0.688,0.471c-0.127,0.053 -0.273,-0.003 -0.329,-0.13c-0.055,-0.126 0.003,-0.273 0.13,-0.329c0.198,-0.086 0.378,-0.209 0.534,-0.365c0.683,-0.683 0.683,-1.792 0,-2.475c-0.682,-0.682 -1.793,-0.682 -2.475,0c-0.683,0.683 -0.683,1.792 0,2.475c0.173,0.173 0.375,0.305 0.601,0.394c0.129,0.05 0.192,0.194 0.142,0.323c-0.039,0.099 -0.134,0.159 -0.234,0.159z"></path></g></g></g></svg>